<svg xmlns="http://www.w3.org/2000/svg" width="18" height="14" viewBox="0 0 18 14" fill="none">
    <path fill-rule="evenodd" clip-rule="evenodd"
          d="M12.8223 7.46973C13.9431 8.23061 14.7286 9.26149 14.7286 10.636V13.0904H17.183C17.633 13.0904 18.0012 12.7223 18.0012 12.2723V10.636C18.0012 8.85241 15.0804 7.79699 12.8223 7.46973Z"
          fill="#D9D9D9"/>
    <path d="M6.54509 6.54524C8.35252 6.54524 9.81772 5.08004 9.81772 3.27262C9.81772 1.4652 8.35252 0 6.54509 0C4.73767 0 3.27246 1.4652 3.27246 3.27262C3.27246 5.08004 4.73767 6.54524 6.54509 6.54524Z"
          fill="#D9D9D9"/>
    <path fill-rule="evenodd" clip-rule="evenodd"
          d="M11.4534 6.54524C13.2615 6.54524 14.726 5.08074 14.726 3.27262C14.726 1.4645 13.2615 0 11.4534 0C11.0688 0 10.7089 0.0818153 10.3652 0.196357C11.0443 1.03906 11.4534 2.11084 11.4534 3.27262C11.4534 4.4344 11.0443 5.50618 10.3652 6.34888C10.7089 6.46342 11.0688 6.54524 11.4534 6.54524Z"
          fill="#D9D9D9"/>
    <path fill-rule="evenodd" clip-rule="evenodd"
          d="M6.54526 7.36328C4.36078 7.36328 0 8.45961 0 10.6359V12.2722C0 12.7222 0.368171 13.0904 0.818158 13.0904H12.2724C12.7224 13.0904 13.0905 12.7222 13.0905 12.2722V10.6359C13.0905 8.45961 8.72974 7.36328 6.54526 7.36328Z"
          fill="#D9D9D9"/>
</svg>