<svg xmlns="http://www.w3.org/2000/svg" width="24" height="24" viewBox="0 0 24 24" fill="none">
    <path d="M5.636 18.364C5.24545 18.7545 5.24545 19.3879 5.636 19.7784L5.636 19.7784C6.02654 20.1689 6.65991 20.1689 7.05045 19.7784L12 14.8284L16.9495 19.7784C17.34 20.1689 17.9735 20.1689 18.364 19.7784L18.364 19.7784C18.7545 19.3879 18.7545 18.7545 18.364 18.364L13.414 13.414L18.364 8.464C18.7545 8.07345 18.7545 7.44009 18.364 7.04955L18.364 7.04955C17.9735 6.659 17.34 6.659 16.9495 7.04955L12 11.9995L7.05045 7.04955C6.65991 6.659 6.02654 6.659 5.636 7.04955L5.636 7.04955C5.24545 7.44009 5.24545 8.07345 5.636 8.464L10.586 13.414L5.636 18.364Z"
          fill="black"/>
</svg>