<svg xmlns="http://www.w3.org/2000/svg" width="19" height="16" viewBox="0 0 19 16" fill="none">
    <path d="M14.1667 8C13.7083 8 13.3333 8.375 13.3333 8.83333V10.5H11.6667C11.2083 10.5 10.8333 10.875 10.8333 11.3333C10.8333 11.7917 11.2083 12.1667 11.6667 12.1667H14.1667C14.625 12.1667 15 11.7917 15 11.3333V8.83333C15 8.375 14.625 8 14.1667 8ZM5 5.5H6.66667C7.125 5.5 7.5 5.125 7.5 4.66667C7.5 4.20833 7.125 3.83333 6.66667 3.83333H4.16667C3.70833 3.83333 3.33333 4.20833 3.33333 4.66667V7.16667C3.33333 7.625 3.70833 8 4.16667 8C4.625 8 5 7.625 5 7.16667V5.5ZM16.6667 0.5H1.66667C0.75 0.5 0 1.25 0 2.16667V13.8333C0 14.75 0.75 15.5 1.66667 15.5H16.6667C17.5833 15.5 18.3333 14.75 18.3333 13.8333V2.16667C18.3333 1.25 17.5833 0.5 16.6667 0.5ZM15.8333 13.8417H2.5C2.04167 13.8417 1.66667 13.4667 1.66667 13.0083V2.99167C1.66667 2.53333 2.04167 2.15833 2.5 2.15833H15.8333C16.2917 2.15833 16.6667 2.53333 16.6667 2.99167V13.0083C16.6667 13.4667 16.2917 13.8417 15.8333 13.8417Z"
          fill="#D9D9D9"/>
</svg>