<svg xmlns="http://www.w3.org/2000/svg" width="14" height="17" viewBox="0 0 14 17" fill="none">
    <path d="M5 0L4.16667 0.833333H0.833333C0.333333 0.833333 0 1.16667 0 1.66667C0 2.16667 0.333333 2.5 0.833333 2.5H2.5H10.8333H12.5C13 2.5 13.3333 2.16667 13.3333 1.66667C13.3333 1.16667 13 0.833333 12.5 0.833333H9.16667L8.33333 0H5ZM0.833333 4.16667V15C0.833333 15.9167 1.58333 16.6667 2.5 16.6667H10.8333C11.75 16.6667 12.5 15.9167 12.5 15V4.16667H0.833333ZM4.16667 5.83333C4.66667 5.83333 5 6.16667 5 6.66667V14.1667C5 14.6667 4.66667 15 4.16667 15C3.66667 15 3.33333 14.6667 3.33333 14.1667V6.66667C3.33333 6.16667 3.66667 5.83333 4.16667 5.83333ZM9.16667 5.83333C9.66667 5.83333 10 6.16667 10 6.66667V14.1667C10 14.6667 9.66667 15 9.16667 15C8.66667 15 8.33333 14.6667 8.33333 14.1667V6.66667C8.33333 6.16667 8.66667 5.83333 9.16667 5.83333Z"
          fill="black"/>
</svg>