<svg xmlns="http://www.w3.org/2000/svg" width="18" height="18" viewBox="0 0 18 18" fill="none">
    <g clip-path="url(#clip0_2_243)">
        <path d="M15 17.9999H3C2.175 17.9999 1.5 17.3249 1.5 16.4999C1.5 15.6749 2.175 14.9999 3 14.9999H15C15.825 14.9999 16.5 15.6749 16.5 16.4999C16.5 17.3249 15.825 17.9999 15 17.9999ZM9.795 3.89242L12.6075 6.70492L6.03 13.2824C5.895 13.4249 5.7 13.4999 5.505 13.4999H3.75C3.3375 13.4999 3 13.1624 3 12.7499V10.9949C3 10.7924 3.0825 10.6049 3.2175 10.4624L9.795 3.89242ZM13.41 5.90242L10.5975 3.08992L11.97 1.71742C12.2625 1.42492 12.735 1.42492 13.0275 1.71742L14.7825 3.47242C15.075 3.76492 15.075 4.23742 14.7825 4.52992L13.41 5.90242Z"
              fill="black"/>
    </g>
    <defs>
        <clipPath id="clip0_2_243">
            <rect width="18" height="18" fill="white"/>
        </clipPath>
    </defs>
</svg>