<svg xmlns="http://www.w3.org/2000/svg" width="16" height="18" viewBox="0 0 16 18" fill="none">
    <path d="M12.4553 0C12.912 0 13.2857 0.373659 13.2857 0.830354V2.49106H14.9464C15.4031 2.49106 15.7767 2.86472 15.7767 3.32142C15.7767 3.77811 15.4031 4.15177 14.9464 4.15177H13.2857V5.81248C13.2857 6.26917 12.912 6.64283 12.4553 6.64283C11.9986 6.64283 11.625 6.26917 11.625 5.81248V4.15177H9.96425C9.50755 4.15177 9.13389 3.77811 9.13389 3.32142C9.13389 2.86472 9.50755 2.49106 9.96425 2.49106H11.625V0.830354C11.625 0.373659 11.9986 0 12.4553 0ZM6.64283 9.96425C7.55622 9.96425 8.30354 9.21693 8.30354 8.30354C8.30354 7.39015 7.55622 6.64283 6.64283 6.64283C5.72944 6.64283 4.98212 7.39015 4.98212 8.30354C4.98212 9.21693 5.72944 9.96425 6.64283 9.96425ZM8.90139 2.05097C8.53604 2.3499 8.30354 2.8066 8.30354 3.32142C8.30354 4.23481 9.05086 4.98212 9.96425 4.98212H10.7946V5.81248C10.7946 6.72587 11.5419 7.47319 12.4553 7.47319C12.721 7.47319 12.9701 7.40676 13.1943 7.29881C13.2524 7.67247 13.2857 8.06274 13.2857 8.46961C13.2857 11.1101 11.2513 14.2157 7.19087 17.7945C6.87533 18.0685 6.40203 18.0685 6.08649 17.7945C2.03437 14.2157 0 11.1101 0 8.46961C0 4.33445 3.15535 1.66071 6.64283 1.66071C7.42336 1.66071 8.18729 1.79356 8.90139 2.05097Z"
          fill="#D9D9D9"/>
</svg>