<svg xmlns="http://www.w3.org/2000/svg" width="18" height="15" viewBox="0 0 18 15" fill="none">
    <path d="M9 0L0 7L0.99 8.325L2.45455 7.18333V15H15.5455V7.18333L17.01 8.31667L18 7L9 0ZM13.9091 13.3333H4.09091V5.91667L9 2.1L13.9091 5.91667V13.3333ZM6.54545 9.16667C6.54545 9.625 6.17727 10 5.72727 10C5.27727 10 4.90909 9.625 4.90909 9.16667C4.90909 8.70833 5.27727 8.33333 5.72727 8.33333C6.17727 8.33333 6.54545 8.70833 6.54545 9.16667ZM9 8.33333C9.45 8.33333 9.81818 8.70833 9.81818 9.16667C9.81818 9.625 9.45 10 9 10C8.55 10 8.18182 9.625 8.18182 9.16667C8.18182 8.70833 8.55 8.33333 9 8.33333ZM11.4545 9.16667C11.4545 8.70833 11.8227 8.33333 12.2727 8.33333C12.7227 8.33333 13.0909 8.70833 13.0909 9.16667C13.0909 9.625 12.7227 10 12.2727 10C11.8227 10 11.4545 9.625 11.4545 9.16667Z"
          fill="#D9D9D9"/>
</svg>