<svg xmlns="http://www.w3.org/2000/svg" width="21" height="22" viewBox="0 0 21 22" fill="none">
    <path d="M19.7559 17.7625C19.2401 16.5407 18.4916 15.4309 17.552 14.4949C16.6153 13.5562 15.5057 12.8078 14.2844 12.291C14.2735 12.2855 14.2626 12.2828 14.2516 12.2773C15.9551 11.0469 17.0626 9.04258 17.0626 6.78125C17.0626 3.03516 14.0274 0 10.2813 0C6.53522 0 3.50007 3.03516 3.50007 6.78125C3.50007 9.04258 4.60749 11.0469 6.31101 12.2801C6.30007 12.2855 6.28913 12.2883 6.27819 12.2937C5.05319 12.8105 3.95397 13.5516 3.01062 14.4977C2.07191 15.4344 1.3235 16.544 0.806709 17.7652C0.298996 18.9608 0.0251752 20.2427 6.83758e-05 21.5414C-0.000661443 21.5706 0.00445738 21.5996 0.0151234 21.6268C0.0257894 21.654 0.0417867 21.6787 0.0621726 21.6996C0.0825585 21.7205 0.106921 21.7371 0.133824 21.7485C0.160726 21.7598 0.189626 21.7656 0.218818 21.7656H1.85944C1.97976 21.7656 2.07546 21.6699 2.07819 21.5523C2.13288 19.4414 2.98054 17.4645 4.47897 15.966C6.02937 14.4156 8.08835 13.5625 10.2813 13.5625C12.4743 13.5625 14.5333 14.4156 16.0837 15.966C17.5821 17.4645 18.4298 19.4414 18.4844 21.5523C18.4872 21.6727 18.5829 21.7656 18.7032 21.7656H20.3438C20.373 21.7656 20.4019 21.7598 20.4288 21.7485C20.4557 21.7371 20.4801 21.7205 20.5005 21.6996C20.5208 21.6787 20.5368 21.654 20.5475 21.6268C20.5582 21.5996 20.5633 21.5706 20.5626 21.5414C20.5352 20.2344 20.2645 18.9629 19.7559 17.7625ZM10.2813 11.4844C9.02624 11.4844 7.84499 10.9949 6.95632 10.1062C6.06765 9.21758 5.57819 8.03633 5.57819 6.78125C5.57819 5.52617 6.06765 4.34492 6.95632 3.45625C7.84499 2.56758 9.02624 2.07812 10.2813 2.07812C11.5364 2.07812 12.7176 2.56758 13.6063 3.45625C14.495 4.34492 14.9844 5.52617 14.9844 6.78125C14.9844 8.03633 14.495 9.21758 13.6063 10.1062C12.7176 10.9949 11.5364 11.4844 10.2813 11.4844Z"
          fill="black"/>
</svg>