<svg width="24" height="24" viewBox="0 0 24 24" fill="none" xmlns="http://www.w3.org/2000/svg">
    <circle cx="12" cy="12" r="12" fill="black"/>
    <path fill-rule="evenodd" clip-rule="evenodd"
          d="M12 5.5C11.9304 5.50001 11.8623 5.51307 11.7981 5.53793C11.734 5.56279 11.6744 5.59902 11.6219 5.64506L5.34117 11.1611C5.30061 11.1963 5.26621 11.2396 5.24032 11.2882C5.21443 11.3368 5.20078 11.3897 5.19796 11.443C5.19796 11.5306 5.2323 11.6158 5.29342 11.68C5.35454 11.7443 5.43734 11.7818 5.52564 11.7818H7.13636V16.9474C7.13636 17.3129 7.37527 17.6184 7.67564 17.6184H10.3244C10.6247 17.6184 10.8636 17.3129 10.8636 16.9474V13.0658H13.1364V16.9474C13.1364 17.3129 13.3753 17.6184 13.6756 17.6184H16.3244C16.6247 17.6184 16.8636 17.3129 16.8636 16.9474V11.7818H18.4744C18.5627 11.7818 18.6455 11.7443 18.7066 11.68C18.7677 11.6158 18.802 11.5306 18.802 11.443C18.802 11.3897 18.7884 11.3368 18.7625 11.2882C18.7366 11.2396 18.7022 11.1963 18.6617 11.1611L12.3831 5.65159C12.3818 5.65042 12.3804 5.64925 12.379 5.64812C12.3265 5.59902 12.2669 5.56279 12.2028 5.53793C12.1387 5.51307 12.0706 5.50001 12 5.5Z"
          fill="white"/>
</svg>